<?xml version="1.0" encoding="UTF-8"?>
<svg width="247.11" height="9.7852" enable-background="new 0 0 270 10" version="1.1" viewBox="0 0 247.11 9.7852" xml:space="preserve" xmlns="http://www.w3.org/2000/svg" xmlns:cc="http://creativecommons.org/ns#" xmlns:dc="http://purl.org/dc/elements/1.1/" xmlns:rdf="http://www.w3.org/1999/02/22-rdf-syntax-ns#"><metadata><rdf:RDF><cc:Work rdf:about=""><dc:format>image/svg+xml</dc:format><dc:type rdf:resource="http://purl.org/dc/dcmitype/StillImage"/><dc:title/></cc:Work></rdf:RDF></metadata><g fill="#fff" fill-opacity=".94118" aria-label="REGGIE"><path d="m2.5715 6.1915v3.4635h-2.5716v-9.518h3.1184q3.8801 0 3.8801 2.8124 0 1.6536-1.6145 2.5585l2.7734 4.147h-2.9166l-2.0182-3.4635zm0-1.9335h0.48176q1.3476 0 1.3476-1.1914 0-0.98305-1.3216-0.98305h-0.5078z" style="font-feature-settings:normal;font-variant-caps:normal;font-variant-ligatures:normal;font-variant-numeric:normal"/><path d="m17.437 9.6549h-5.6509v-9.518h5.6509v2.0638h-3.0794v1.4974h2.8515v2.0638h-2.8515v1.7968h3.0794z" style="font-feature-settings:normal;font-variant-caps:normal;font-variant-ligatures:normal;font-variant-numeric:normal"/><path d="m25.675 4.0822h4.108v5.1301q-1.6731 0.5729-3.6783 0.5729-2.2005 0-3.4049-1.276-1.1979-1.276-1.1979-3.6392 0-2.3046 1.3151-3.5872 1.3151-1.2825 3.6848-1.2825 0.89842 0 1.6927 0.16927 0.80076 0.16927 1.3932 0.42968l-0.81378 2.0182q-1.0286-0.5078-2.2591-0.5078-1.1263 0-1.7447 0.73566-0.61196 0.72915-0.61196 2.0898 0 1.3346 0.55337 2.0377 0.55988 0.6966 1.608 0.6966 0.5729 0 1.0547-0.11067v-1.4908h-1.6992z" style="font-feature-settings:normal;font-variant-caps:normal;font-variant-ligatures:normal;font-variant-numeric:normal"/><path d="m38.295 4.0822h4.108v5.1301q-1.6731 0.5729-3.6783 0.5729-2.2005 0-3.4049-1.276-1.1979-1.276-1.1979-3.6392 0-2.3046 1.3151-3.5872 1.3151-1.2825 3.6848-1.2825 0.89842 0 1.6927 0.16927 0.80076 0.16927 1.3932 0.42968l-0.81378 2.0182q-1.0286-0.5078-2.2591-0.5078-1.1263 0-1.7447 0.73566-0.61196 0.72915-0.61196 2.0898 0 1.3346 0.55337 2.0377 0.55988 0.6966 1.608 0.6966 0.5729 0 1.0547-0.11067v-1.4908h-1.6992z" style="font-feature-settings:normal;font-variant-caps:normal;font-variant-ligatures:normal;font-variant-numeric:normal"/><path d="m47.093 9.6549v-9.518h2.5846v9.518z" style="font-feature-settings:normal;font-variant-caps:normal;font-variant-ligatures:normal;font-variant-numeric:normal"/><path d="m60.129 9.6549h-5.6509v-9.518h5.6509v2.0638h-3.0794v1.4974h2.8515v2.0638h-2.8515v1.7968h3.0794z" style="font-feature-settings:normal;font-variant-caps:normal;font-variant-ligatures:normal;font-variant-numeric:normal"/></g><g fill="#fff" fill-opacity=".94118" aria-label="EVENT MANAGEMENT SYSTEM"><path d="m74.201 9.0853h-4.7754v-8.5664h4.7754v0.88477h-3.7793v2.7598h3.5508v0.87891h-3.5508v3.1523h3.7793z" style="font-feature-settings:normal;font-variant-caps:normal;font-variant-ligatures:normal;font-variant-numeric:normal"/><path d="m81.448 0.51892h1.0723l-3.0879 8.5664h-0.98438l-3.0703-8.5664h1.0547l1.9688 5.543q0.33984 0.95508 0.53906 1.8574 0.21094-0.94922 0.55078-1.8926z" style="font-feature-settings:normal;font-variant-caps:normal;font-variant-ligatures:normal;font-variant-numeric:normal"/><path d="m88.929 9.0853h-4.7754v-8.5664h4.7754v0.88477h-3.7793v2.7598h3.5508v0.87891h-3.5508v3.1523h3.7793z" style="font-feature-settings:normal;font-variant-caps:normal;font-variant-ligatures:normal;font-variant-numeric:normal"/><path d="m97.974 9.0853h-1.1367l-4.6816-7.1895h-0.04687q0.09375 1.2656 0.09375 2.3203v4.8691h-0.91993v-8.5664h1.125l4.6699 7.1602h0.04687q-0.01172-0.1582-0.05273-1.0137-0.04102-0.86133-0.0293-1.2305v-4.916h0.93164z" style="font-feature-settings:normal;font-variant-caps:normal;font-variant-ligatures:normal;font-variant-numeric:normal"/><path d="m103.42 9.0853h-0.9961v-7.6816h-2.7129v-0.88477h6.4219v0.88477h-2.7129z" style="font-feature-settings:normal;font-variant-caps:normal;font-variant-ligatures:normal;font-variant-numeric:normal"/><path d="m115.22 9.0853-2.9062-7.5938h-0.0469q0.082 0.90234 0.082 2.1445v5.4492h-0.91992v-8.5664h1.5l2.7129 7.0664h0.0469l2.7363-7.0664h1.4883v8.5664h-0.9961v-5.5195q0-0.94922 0.082-2.0625h-0.0469l-2.9297 7.582z" style="font-feature-settings:normal;font-variant-caps:normal;font-variant-ligatures:normal;font-variant-numeric:normal"/><path d="m128.09 9.0853-1.0664-2.7246h-3.4336l-1.0547 2.7246h-1.0078l3.3867-8.6016h0.83789l3.3691 8.6016zm-1.377-3.6211-0.99609-2.6543q-0.19336-0.50391-0.39844-1.2363-0.12891 0.5625-0.36914 1.2363l-1.0078 2.6543z" style="font-feature-settings:normal;font-variant-caps:normal;font-variant-ligatures:normal;font-variant-numeric:normal"/><path d="m137.44 9.0853h-1.1367l-4.6816-7.1895h-0.0469q0.0937 1.2656 0.0937 2.3203v4.8691h-0.91993v-8.5664h1.125l4.6699 7.1602h0.0469q-0.0117-0.1582-0.0527-1.0137-0.041-0.86133-0.0293-1.2305v-4.916h0.93164z" style="font-feature-settings:normal;font-variant-caps:normal;font-variant-ligatures:normal;font-variant-numeric:normal"/><path d="m145.63 9.0853-1.0664-2.7246h-3.4336l-1.0547 2.7246h-1.0078l3.3867-8.6016h0.83789l3.3691 8.6016zm-1.377-3.6211-0.9961-2.6543q-0.19336-0.50391-0.39844-1.2363-0.1289 0.5625-0.36914 1.2363l-1.0078 2.6543z" style="font-feature-settings:normal;font-variant-caps:normal;font-variant-ligatures:normal;font-variant-numeric:normal"/><path d="m152.06 4.597h2.9121v4.166q-0.67969 0.2168-1.3828 0.32812-0.70312 0.11133-1.6289 0.11133-1.9453 0-3.0293-1.1543-1.084-1.1602-1.084-3.2461 0-1.3359 0.5332-2.3379 0.53906-1.0078 1.5469-1.5352 1.0078-0.5332 2.3613-0.5332 1.3711 0 2.5547 0.50391l-0.38672 0.87891q-1.1602-0.49219-2.2324-0.49219-1.5644 0-2.4434 0.93164-0.87891 0.93164-0.87891 2.584 0 1.7344 0.84375 2.6309 0.84961 0.89648 2.4902 0.89648 0.89062 0 1.7402-0.20508v-2.6367h-1.916z" style="font-feature-settings:normal;font-variant-caps:normal;font-variant-ligatures:normal;font-variant-numeric:normal"/><path d="m162.26 9.0853h-4.7754v-8.5664h4.7754v0.88477h-3.7793v2.7598h3.5508v0.87891h-3.5508v3.1523h3.7793z" style="font-feature-settings:normal;font-variant-caps:normal;font-variant-ligatures:normal;font-variant-numeric:normal"/><path d="m168.41 9.0853-2.9062-7.5938h-0.0469q0.082 0.90234 0.082 2.1445v5.4492h-0.91992v-8.5664h1.5l2.7129 7.0664h0.0469l2.7363-7.0664h1.4883v8.5664h-0.99609v-5.5195q0-0.94922 0.082-2.0625h-0.0469l-2.9297 7.582z" style="font-feature-settings:normal;font-variant-caps:normal;font-variant-ligatures:normal;font-variant-numeric:normal"/><path d="m180.67 9.0853h-4.7754v-8.5664h4.7754v0.88477h-3.7793v2.7598h3.5508v0.87891h-3.5508v3.1523h3.7793z" style="font-feature-settings:normal;font-variant-caps:normal;font-variant-ligatures:normal;font-variant-numeric:normal"/><path d="m189.71 9.0853h-1.1367l-4.6816-7.1895h-0.0469q0.0937 1.2656 0.0937 2.3203v4.8691h-0.91992v-8.5664h1.125l4.6699 7.1602h0.0469q-0.0117-0.1582-0.0527-1.0137-0.041-0.86133-0.0293-1.2305v-4.916h0.93164z" style="font-feature-settings:normal;font-variant-caps:normal;font-variant-ligatures:normal;font-variant-numeric:normal"/><path d="m195.16 9.0853h-0.99609v-7.6816h-2.7129v-0.88477h6.4219v0.88477h-2.7129z" style="font-feature-settings:normal;font-variant-caps:normal;font-variant-ligatures:normal;font-variant-numeric:normal"/><path d="m208 6.806q0 1.1309-0.82031 1.7637t-2.2266 0.63281q-1.5234 0-2.3438-0.39258v-0.96094q0.52734 0.22266 1.1484 0.35156 0.6211 0.12891 1.2305 0.12891 0.9961 0 1.5-0.375 0.50391-0.38086 0.50391-1.0547 0-0.44531-0.18164-0.72656-0.17578-0.28711-0.59766-0.52734-0.41601-0.24023-1.2715-0.54492-1.1953-0.42773-1.7109-1.0137-0.50977-0.58594-0.50977-1.5293 0-0.99023 0.74414-1.5762 0.74415-0.58594 1.9688-0.58594 1.2774 0 2.3496 0.46875l-0.31054 0.86719q-1.0606-0.44531-2.0625-0.44531-0.79102 0-1.2363 0.33984-0.44531 0.33984-0.44531 0.94336 0 0.44531 0.16406 0.73242 0.16406 0.28125 0.55078 0.52148 0.39258 0.23438 1.1953 0.52148 1.3477 0.48047 1.8516 1.0312 0.50976 0.55078 0.50976 1.4297z" style="font-feature-settings:normal;font-variant-caps:normal;font-variant-ligatures:normal;font-variant-numeric:normal"/><path d="m212.38 4.8021 2.2852-4.2832h1.0781l-2.8594 5.2441v3.3223h-1.0078v-3.2754l-2.8535-5.291h1.0898z" style="font-feature-settings:normal;font-variant-caps:normal;font-variant-ligatures:normal;font-variant-numeric:normal"/><path d="m222.22 6.806q0 1.1309-0.82031 1.7637-0.82032 0.63281-2.2266 0.63281-1.5234 0-2.3438-0.39258v-0.96094q0.52735 0.22266 1.1484 0.35156 0.6211 0.12891 1.2305 0.12891 0.99609 0 1.5-0.375 0.50391-0.38086 0.50391-1.0547 0-0.44531-0.18164-0.72656-0.17578-0.28711-0.59766-0.52734-0.41602-0.24023-1.2715-0.54492-1.1953-0.42773-1.7109-1.0137-0.50977-0.58594-0.50977-1.5293 0-0.99023 0.74414-1.5762 0.74414-0.58594 1.9688-0.58594 1.2774 0 2.3496 0.46875l-0.31054 0.86719q-1.0606-0.44531-2.0625-0.44531-0.79102 0-1.2363 0.33984-0.44531 0.33984-0.44531 0.94336 0 0.44531 0.16406 0.73242 0.16406 0.28125 0.55078 0.52148 0.39258 0.23438 1.1953 0.52148 1.3477 0.48047 1.8516 1.0312 0.50977 0.55078 0.50977 1.4297z" style="font-feature-settings:normal;font-variant-caps:normal;font-variant-ligatures:normal;font-variant-numeric:normal"/><path d="m227.05 9.0853h-0.9961v-7.6816h-2.7129v-0.88477h6.4219v0.88477h-2.7129z" style="font-feature-settings:normal;font-variant-caps:normal;font-variant-ligatures:normal;font-variant-numeric:normal"/><path d="m236.28 9.0853h-4.7754v-8.5664h4.7754v0.88477h-3.7793v2.7598h3.5508v0.87891h-3.5508v3.1523h3.7793z" style="font-feature-settings:normal;font-variant-caps:normal;font-variant-ligatures:normal;font-variant-numeric:normal"/><path d="m242.42 9.0853-2.9062-7.5938h-0.0469q0.082 0.90234 0.082 2.1445v5.4492h-0.91993v-8.5664h1.5l2.7129 7.0664h0.0469l2.7363-7.0664h1.4883v8.5664h-0.99609v-5.5195q0-0.94922 0.082-2.0625h-0.0469l-2.9297 7.582z" style="font-feature-settings:normal;font-variant-caps:normal;font-variant-ligatures:normal;font-variant-numeric:normal"/></g></svg>
