<?xml version="1.0" encoding="UTF-8" standalone="no"?>
<svg
   xmlns:dc="http://purl.org/dc/elements/1.1/"
   xmlns:cc="http://creativecommons.org/ns#"
   xmlns:rdf="http://www.w3.org/1999/02/22-rdf-syntax-ns#"
   xmlns:svg="http://www.w3.org/2000/svg"
   xmlns="http://www.w3.org/2000/svg"
   xmlns:sodipodi="http://sodipodi.sourceforge.net/DTD/sodipodi-0.dtd"
   xmlns:inkscape="http://www.inkscape.org/namespaces/inkscape"
   viewBox="0 0 880 242.5"
   height="242.5"
   width="880"
   xml:space="preserve"
   version="1.1"
   id="svg2"
   sodipodi:docname="MAGFEST_logo_for_ubersystem.svg"
   inkscape:version="0.92.2 (5c3e80d, 2017-08-06)"><sodipodi:namedview
     pagecolor="#ffffff"
     bordercolor="#666666"
     borderopacity="1"
     objecttolerance="10"
     gridtolerance="10"
     guidetolerance="10"
     inkscape:pageopacity="0"
     inkscape:pageshadow="2"
     inkscape:window-width="1211"
     inkscape:window-height="745"
     id="namedview35"
     showgrid="false"
     inkscape:pagecheckerboard="true"
     inkscape:zoom="1.2"
     inkscape:cx="304.58333"
     inkscape:cy="121.25"
     inkscape:window-x="-8"
     inkscape:window-y="-8"
     inkscape:window-maximized="1"
     inkscape:current-layer="g12" /><metadata
     id="metadata8"><rdf:RDF><cc:Work
         rdf:about=""><dc:format>image/svg+xml</dc:format><dc:type
           rdf:resource="http://purl.org/dc/dcmitype/StillImage" /><dc:title></dc:title></cc:Work></rdf:RDF></metadata><defs
     id="defs6" /><g
     transform="matrix(1.25,0,0,-1.25,0,242.5)"
     id="g10"><g
       transform="scale(0.1,0.1)"
       id="g12"><path
         id="path16"
         style="fill:#d1d1d1;fill-opacity:1;fill-rule:nonzero;stroke:none"
         d="m 916.098,1000.7 0,554.04 c 0,16.85 -13.657,30.5 -30.508,30.5 l -109.567,0 c -16.843,0 -30.503,-13.65 -30.503,-30.5 l 0,-554.04 170.578,0" /><path
         id="path18"
         style="fill:#d1d1d1;fill-opacity:1;fill-rule:nonzero;stroke:none"
         d="m 1315.68,833.309 -215.79,0 c 0,0 0,27.929 0,63.492 61.78,27.308 146.52,27.84 215.79,0 0,-20.66 0,-63.492 0,-63.492" /><path
         id="path20"
         style="fill:#d1d1d1;fill-opacity:1;fill-rule:nonzero;stroke:none"
         d="m 682.516,984.988 c -11.7,0 -21.188,-9.48 -21.188,-21.183 0,-11.711 9.488,-21.184 21.188,-21.184 l 296.589,0 c 11.696,0 21.185,9.473 21.185,21.184 0,11.703 -9.489,21.183 -21.185,21.183 l -296.589,0" /><path
         id="path22"
         style="fill:#d1d1d1;fill-opacity:1;fill-rule:nonzero;stroke:none"
         d="m 648.617,929.922 c -11.699,0 -21.183,-9.5 -21.183,-21.192 0,-11.71 9.484,-21.199 21.183,-21.199 l 364.383,0 c 11.7,0 21.18,9.489 21.18,21.199 0,11.692 -9.48,21.192 -21.18,21.192 l -364.383,0" /><path
         id="path24"
         style="fill:#d1d1d1;fill-opacity:1;fill-rule:nonzero;stroke:none"
         d="m 618.961,874.832 c -11.699,0 -21.188,-9.48 -21.188,-21.191 0,-11.7 9.489,-21.18 21.188,-21.18 l 423.699,0 c 11.7,0 21.18,9.48 21.18,21.18 0,11.711 -9.48,21.191 -21.18,21.191 l -423.699,0" /><path
         id="path26"
         style="fill:#d1d1d1;fill-opacity:1;fill-rule:nonzero;stroke:none"
         d="m 5419.17,1147.53 c 0,-22.97 0,-337.171 0,-360.139 21.25,0 177.2,0 198.45,0 0,22.968 0,337.169 0,360.139 -21.25,0 -177.2,0 -198.45,0" /><path
         id="path28"
         style="fill:#d1d1d1;fill-opacity:1;fill-rule:nonzero;stroke:none"
         d="m 6152.89,1244.1 c -9.94,-9.94 -9.94,-26.03 0,-35.95 64.13,-64.15 98.03,-142.64 98.03,-227.002 0,-86.539 -36.65,-174.839 -98.03,-236.238 -9.94,-9.91 -9.94,-26.019 0,-35.961 9.9,-9.929 26.01,-9.929 35.94,0 70.73,70.723 112.94,172.481 112.94,272.199 0,98.142 -39.06,189.072 -112.94,262.952 -9.93,9.93 -26.04,9.93 -35.94,0" /><path
         id="path30"
         style="fill:#d1d1d1;fill-opacity:1;fill-rule:nonzero;stroke:none"
         d="m 6308.91,1358.05 c -9.93,-9.92 -9.93,-26.03 0,-35.96 216.28,-216.3 169.84,-521.262 0,-691.121 -9.93,-9.938 -9.93,-26.02 0,-35.949 9.92,-9.93 26.01,-9.93 35.95,0 187.52,187.539 238.8,524.22 0,763.02 -9.94,9.93 -26.04,9.93 -35.95,0.01" /><path
         id="path32"
         style="fill:#d1d1d1;fill-opacity:1;fill-rule:nonzero;stroke:none"
         d="m 6454.58,1520.82 c -9.93,-9.92 -9.93,-26.02 0,-35.95 140.67,-140.66 215.01,-313.07 215.01,-498.608 0,-189.774 -80.37,-383.442 -215.01,-518.09 -9.93,-9.91 -9.93,-26.024 0,-35.942 9.94,-9.929 26.04,-9.929 35.95,0 143.97,143.95 229.91,351.079 229.91,554.032 0,199.318 -79.49,384.158 -229.91,534.558 -9.91,9.93 -26.01,9.93 -35.95,0" /><path
         id="path34"
         style="fill:#d1d1d1;fill-opacity:1;fill-rule:nonzero;stroke:none"
         d="m 1343.49,387.039 c 0,-16.867 -13.66,-30.508 -30.51,-30.508 l -964.343,0 c -16.844,0 -30.5,13.641 -30.5,30.508 l 0,397.793 c 0,16.84 13.656,30.496 30.5,30.496 l 964.343,0 c 16.85,0 30.51,-13.656 30.51,-30.496 l 0,-397.793" /><path
         id="path36"
         style="fill:#d1d1d1;fill-opacity:1;fill-rule:nonzero;stroke:none"
         d="m 1835.13,406.281 c 0,-9.769 -3.05,-17.312 -9.14,-22.66 -6.09,-5.332 -13.41,-8.012 -21.93,-8.012 -8.24,0 -15.39,2.672 -21.48,8.012 -6.11,5.328 -9.15,12.867 -9.15,22.641 l 0,90.078 -66.33,-106.621 c -7.92,-12.578 -16.77,-18.879 -26.53,-18.879 -9.47,0 -18.15,6.269 -26.08,18.781 l -66.43,106.719 0,-90.078 c 0,-9.774 -3.05,-17.313 -9.14,-22.641 -6.1,-5.34 -13.4,-8.012 -21.93,-8.012 -8.24,0 -15.39,2.68 -21.49,8.012 -6.09,5.348 -9.14,12.891 -9.14,22.66 l 0,197.66 c 0,10.969 2.74,19.68 8.23,26.079 5.48,6.402 12.04,9.601 19.66,9.601 11.58,0 21.33,-6.43 29.26,-19.289 l 97.11,-155.863 97.9,155.871 c 7.91,12.871 17.49,19.281 28.77,19.281 7.6,0 14.15,-3.199 19.62,-9.601 5.48,-6.399 8.22,-15.11 8.22,-26.079 l 0,-197.66" /><path
         id="path38"
         style="fill:#d1d1d1;fill-opacity:1;fill-rule:nonzero;stroke:none"
         d="m 2271.73,498.75 57.68,0 -28.78,46.699 -28.9,-46.699 z m 89.94,-54.559 -121.72,0 -36.14,-54.98 c -6.41,-9.762 -14.95,-14.66 -25.63,-14.66 -8.53,0 -16.02,2.969 -22.42,8.937 -6.4,5.934 -9.61,13.184 -9.61,21.731 0,5.801 1.68,11.453 5.03,16.941 l 108.45,175.309 c 14.04,22.64 27.77,33.953 41.19,33.953 9.15,0 17.38,-3.512 24.71,-10.531 4.58,-4.262 10.36,-12.051 17.38,-23.352 l 108,-175.328 c 3.35,-5.551 5.03,-11.27 5.03,-17.133 0,-8.637 -3.28,-15.879 -9.84,-21.75 -6.56,-5.848 -13.96,-8.777 -22.18,-8.777 -10.69,0 -19.23,4.758 -25.63,14.301 l -36.62,55.339" /><path
         id="path40"
         style="fill:#d1d1d1;fill-opacity:1;fill-rule:nonzero;stroke:none"
         d="m 3065.43,406.199 c 0,-20.75 -10.21,-31.129 -30.66,-31.129 l -247.17,0 c -20.44,0 -30.67,10.379 -30.67,31.149 l 0,197.769 c 0,20.75 10.21,31.121 30.63,31.121 l 246.8,0 c 9.75,0 17.36,-3.039 22.85,-9.14 5.5,-6.078 8.22,-13.43 8.22,-21.957 0,-8.551 -2.72,-15.864 -8.21,-21.953 -5.48,-6.11 -13.09,-9.168 -22.84,-9.168 l -216.01,0 0,-135.582 185.63,0 0,36.543 -92.87,0 c -9.76,0 -17.38,3.058 -22.86,9.148 -5.5,6.121 -8.25,13.422 -8.25,21.969 0,8.531 2.75,15.859 8.25,21.961 5.48,6.101 13.12,9.152 22.89,9.152 l 154.27,0 0,-129.883" /><path
         id="path42"
         style="fill:#d1d1d1;fill-opacity:1;fill-rule:nonzero;stroke:none"
         d="m 3696.22,473.852 -216.34,0 0,-67.622 c 0,-9.75 -3.06,-17.289 -9.17,-22.621 -6.13,-5.328 -13.31,-8 -21.54,-8 -8.27,0 -15.44,2.68 -21.56,8.012 -6.13,5.348 -9.16,12.891 -9.16,22.66 l 0,197.731 c 0,20.726 10.21,31.097 30.64,31.097 l 247.11,0 c 9.75,0 17.39,-3.039 22.89,-9.14 5.48,-6.078 8.22,-13.43 8.22,-21.957 0,-8.551 -2.74,-15.864 -8.22,-21.953 -5.5,-6.11 -13.12,-9.168 -22.87,-9.168 l -216.34,0 0,-36.809 216.34,0 c 9.75,0 17.37,-3.051 22.87,-9.152 5.48,-6.102 8.22,-13.43 8.22,-21.961 0,-8.547 -2.74,-15.848 -8.22,-21.969 -5.5,-6.09 -13.12,-9.148 -22.87,-9.148" /><path
         id="path44"
         style="fill:#d1d1d1;fill-opacity:1;fill-rule:nonzero;stroke:none"
         d="m 4341.23,375.07 -247.1,0 c -20.44,0 -30.65,10.379 -30.65,31.149 l 0,197.769 c 0,20.75 10.21,31.121 30.65,31.121 l 247.1,0 c 9.77,0 17.39,-3.039 22.89,-9.14 5.47,-6.078 8.22,-13.43 8.22,-21.957 0,-8.551 -2.75,-15.864 -8.22,-21.953 -5.5,-6.11 -13.11,-9.168 -22.87,-9.168 l -216.33,0 0,-36.809 216.33,0 c 9.76,0 17.37,-3.051 22.87,-9.152 5.47,-6.102 8.22,-13.43 8.22,-21.961 0,-8.547 -2.75,-15.848 -8.22,-21.969 -5.5,-6.09 -13.11,-9.148 -22.87,-9.148 l -216.33,0 0,-36.543 216.33,0 c 9.76,0 17.37,-3.039 22.87,-9.161 5.47,-6.078 8.22,-13.418 8.22,-21.949 0,-8.551 -2.75,-15.859 -8.22,-21.98 -5.5,-6.078 -13.12,-9.149 -22.89,-9.149" /><path
         id="path46"
         style="fill:#d1d1d1;fill-opacity:1;fill-rule:nonzero;stroke:none"
         d="m 5027.34,406.199 c 0,-20.75 -10.37,-31.129 -31.1,-31.129 l -247.03,0 c -9.75,0 -17.31,3.071 -22.64,9.149 -5.34,6.121 -8,13.429 -8,21.98 0,8.531 2.67,15.871 8,21.949 5.35,6.122 12.89,9.161 22.66,9.161 l 216.41,0 0,36.543 -216.41,0 c -20.44,0 -30.66,10.378 -30.66,31.16 l 0,98.957 c 0,20.769 10.22,31.14 30.64,31.14 l 247.03,0 c 9.74,0 17.38,-3.039 22.87,-9.14 5.47,-6.078 8.23,-13.43 8.23,-21.957 0,-8.551 -2.76,-15.864 -8.23,-21.953 -5.49,-6.11 -13.13,-9.168 -22.87,-9.168 l -215.97,0 0,-36.809 215.97,0 c 20.73,0 31.1,-10.352 31.1,-31.094 l 0,-98.789" /><path
         id="path48"
         style="fill:#d1d1d1;fill-opacity:1;fill-rule:nonzero;stroke:none"
         d="m 5628.6,572.891 -92.36,0 0,-166.61 c 0,-9.769 -3.04,-17.312 -9.14,-22.66 -6.08,-5.332 -13.41,-8.012 -21.93,-8.012 -8.23,0 -15.4,2.68 -21.48,8.012 -6.11,5.348 -9.15,12.891 -9.15,22.66 l 0,166.61 -93.03,0 c -9.79,0 -17.41,3.058 -22.91,9.168 -5.52,6.089 -8.25,13.402 -8.25,21.953 0,8.527 2.73,15.879 8.23,21.957 5.5,6.101 13.11,9.14 22.88,9.14 l 247.1,0 c 9.77,0 17.4,-3.039 22.89,-9.14 5.47,-6.078 8.22,-13.43 8.22,-21.957 0,-8.551 -2.74,-15.864 -8.22,-21.953 -5.48,-6.11 -13.11,-9.168 -22.85,-9.168" /><path
         id="path50"
         style="fill:#d1d1d1;fill-opacity:1;fill-rule:nonzero;stroke:none"
         d="m 5643.03,1148.61 0,-362.321 431.98,-431.969 0,1226.27 -431.98,-431.98" /><path
         id="path52"
         style="fill:#d1d1d1;fill-opacity:1;fill-rule:nonzero;stroke:none"
         d="m 5298.69,993.113 c 0,0 0,-152.043 0,-202.273 -50.61,0 -185.44,0 -236.1,0 0.09,68.34 0.99,705.57 0.99,705.57 l -778.75,0 c 0,0 0,-634.211 0,-702.422 -64.32,0 -563.65,0 -627.97,0 0,68.211 0,702.422 0,702.422 l -778.71,0 c 0,0 0,-634.211 0,-702.422 -64.32,0 -563.65,0 -627.99,0 0,68.211 0,702.422 0,702.422 l -778.68,0 c 0,0 0,-634.211 0,-702.422 -25.57,0 -67.51,0 -102.43,0 l 0,-76.258 178.7,0 c 0,0 0,634.2 0,702.41 64.29,0 561.86,0 626.15,0 0,-68.21 0,-702.41 0,-702.41 l 780.52,0 c 0,0 0,634.2 0,702.41 64.3,0 561.86,0 626.17,0 0,-68.21 0,-702.41 0,-702.41 l 780.52,0 c 0,0 0,634.2 0,702.41 64.28,0 561.73,0 626.09,0 -0.09,-68.33 -0.99,-705.562 -0.99,-705.562 l 388.74,0 c 0,0 0,152.063 0,202.274 5.99,0 12.36,0 18.8,0 l 0,76.261 -95.06,0" /></g></g></svg>